# xmcd
#
# Track frame offsets: 
#        150
#        27543
#        59965
#        84011
#        105122
#        131130
#        151887
#        173784
#        193135
#        218909
#        242551
#        268602
#        292683
#
# Disc length: 4120 seconds
#
# Revision: 0
# Processed by: cddbd v1.5.2PL0 Copyright (c) Steve Scherf et al.
# Submitted via: ExactAudioCopy v0.99pb4
#
DISCID=b110160d
DTITLE=Brian Templeton - Live At Bluesiana Rock Cafe CD 2
DYEAR=2007
DGENRE=Blues
TTITLE0=Evil Love
TTITLE1=Let Me Down Easy
TTITLE2=Money In Her Pocket
TTITLE3=I Don't No Woman
TTITLE4=The Shelf
TTITLE5=And Like That
TTITLE6=Learn To Treat Me Right
TTITLE7=Everything I Do Is Wrong
TTITLE8=My Baby's Gone
TTITLE9=Sick And Tired
TTITLE10=I Know You Know 
TTITLE11=I Feel So Good
TTITLE12=Bluesiana Throwdown
EXTD=
EXTT0=
EXTT1=
EXTT2=
EXTT3=
EXTT4=
EXTT5=
EXTT6=
EXTT7=
EXTT8=
EXTT9=
EXTT10=
EXTT11=
EXTT12=
PLAYORDER=
